<svg width="72" height="72" viewBox="0 0 72 72" fill="none" xmlns="http://www.w3.org/2000/svg">
<path d="M6.75 44.999C6.75 52.4549 12.7942 58.499 20.25 58.499H54C60.2132 58.499 65.25 53.4622 65.25 47.249C65.25 42.4427 62.236 38.3404 57.9949 36.729C58.3221 35.7963 58.5 34.7934 58.5 33.749C58.5 28.7785 54.4706 24.749 49.5 24.749C48.5302 24.749 47.5962 24.9024 46.721 25.1863C44.9294 18.4568 38.7937 13.499 31.5 13.499C22.8015 13.499 15.75 20.5505 15.75 29.249C15.75 30.2487 15.8431 31.2266 16.0212 32.1746C10.6367 33.9491 6.75 39.0202 6.75 44.999Z" stroke="#FCFCFC" stroke-width="1.42857" stroke-linecap="round" stroke-linejoin="round"/>
</svg>
