<svg width="24" height="24" viewBox="0 0 24 24" fill="none" xmlns="http://www.w3.org/2000/svg">
<g id="gearwheel-seo-agency-business-internet-online-marketing 1">
<g id="Ebene_1">
<g id="Group">
<path id="Vector" d="M21 9.5625H19.9058C19.5278 9.5625 19.2225 9.38963 19.1786 9.27112C19.1033 9.066 19.0999 8.34787 19.3106 8.13713L20.0876 7.36013C20.4533 6.9945 20.4533 6.39975 20.0876 6.0345L17.9666 3.91313C17.6137 3.56025 16.9939 3.56025 16.641 3.91313L15.864 4.69012C15.6442 4.90987 15.3821 5.01 15.231 5.01C15.1886 5.01 15.1635 5.00213 15.15 4.99612C14.9505 4.90162 14.4379 4.3905 14.4379 4.095V3C14.4379 2.48325 14.0175 2.0625 13.5004 2.0625H10.5004C9.98362 2.0625 9.56287 2.48325 9.56287 3V4.09425C9.56287 4.47225 9.39038 4.7775 9.2715 4.821C9.21 4.84387 9.05363 4.86825 8.85675 4.86825C8.523 4.86825 8.24738 4.79963 8.13713 4.68937L7.36013 3.91237C7.00725 3.5595 6.38737 3.5595 6.0345 3.91237L3.9135 6.03375C3.54787 6.39937 3.54787 6.99412 3.9135 7.35938L4.6905 8.13638C4.95713 8.403 5.04975 8.73713 4.9965 8.84963C4.902 9.04913 4.39087 9.56175 4.09537 9.56175H3C2.48325 9.56175 2.0625 9.9825 2.0625 10.4992V13.4993C2.0625 14.0164 2.48325 14.4368 3 14.4368H4.09425C4.47225 14.4368 4.7775 14.6096 4.821 14.7281C4.89675 14.9336 4.90013 15.6517 4.68937 15.8625L3.91237 16.6395C3.73575 16.8161 3.63863 17.0512 3.63863 17.3025C3.63863 17.5538 3.73575 17.7889 3.91237 17.9655L6.03338 20.0865C6.38625 20.4394 7.00613 20.4394 7.359 20.0865L8.136 19.3095C8.35575 19.0898 8.61825 18.9893 8.769 18.9893C8.81138 18.9893 8.8365 18.9971 8.84963 19.0035C9.04913 19.098 9.56213 19.6091 9.56213 19.9046V21C9.56213 21.5171 9.98288 21.9375 10.4996 21.9375H13.4996C14.0168 21.9375 14.4371 21.5171 14.4371 21V19.9058C14.4371 19.5278 14.61 19.2225 14.7289 19.1786C14.79 19.1558 14.9456 19.1318 15.1429 19.1318C15.477 19.1318 15.753 19.2004 15.8632 19.3106L16.6403 20.0876C16.9931 20.4405 17.613 20.4405 17.9659 20.0876L20.0869 17.9666C20.2635 17.79 20.3602 17.5549 20.3602 17.3036C20.3602 17.0524 20.2631 16.8173 20.0869 16.6406L19.3099 15.8636C19.0432 15.5966 18.9506 15.2625 19.0042 15.15C19.0988 14.9505 19.6099 14.4379 19.9054 14.4379H21C21.5171 14.4379 21.9375 14.0175 21.9375 13.5004V10.5004C21.9375 9.98325 21.5171 9.5625 21 9.5625ZM21.5625 13.5C21.5625 13.8101 21.3101 14.0625 21 14.0625H19.9058C19.3804 14.0625 18.7785 14.751 18.6652 14.9895C18.5066 15.3244 18.7425 15.8261 19.0451 16.1287L19.8221 16.9058C20.0415 17.1251 20.0415 17.4817 19.8221 17.7011L17.7011 19.8221C17.4904 20.0329 17.1165 20.0329 16.9058 19.8221L16.1287 19.0451C15.8775 18.7939 15.4035 18.7564 15.1432 18.7564C14.925 18.7564 14.7165 18.783 14.5991 18.8269C14.2507 18.9559 14.0625 19.4786 14.0625 19.9058V21C14.0625 21.3101 13.8101 21.5625 13.5 21.5625H10.5C10.1899 21.5625 9.9375 21.3101 9.9375 21V19.9058C9.9375 19.3804 9.249 18.7785 9.01087 18.6652C8.94037 18.6319 8.85938 18.615 8.76937 18.615C8.48513 18.615 8.13263 18.7838 7.87125 19.0448L7.09425 19.8218C6.88312 20.0325 6.51 20.0325 6.29888 19.8218L4.17788 17.7008C4.07212 17.5954 4.014 17.454 4.014 17.3029C4.014 17.1517 4.07212 17.0108 4.17788 16.905L4.95487 16.128C5.32987 15.753 5.26425 14.8448 5.1735 14.5988C5.04487 14.25 4.52175 14.0618 4.09462 14.0618H3C2.68988 14.0618 2.4375 13.8094 2.4375 13.4993V10.4992C2.4375 10.1891 2.68988 9.93675 3 9.93675H4.09425C4.61963 9.93675 5.2215 9.24825 5.33438 9.01013C5.49263 8.67525 5.25675 8.1735 4.9545 7.87088L4.1775 7.09387C3.95813 6.8745 3.95813 6.51787 4.1775 6.2985L6.2985 4.17712C6.50962 3.966 6.88275 3.966 7.09387 4.17712L7.87088 4.95413C8.12213 5.20538 8.59575 5.24288 8.85563 5.24288C9.07387 5.24288 9.28237 5.21588 9.40012 5.17238C9.74887 5.04375 9.93713 4.52063 9.93713 4.0935V3C9.93713 2.68988 10.1895 2.4375 10.4996 2.4375H13.4996C13.8098 2.4375 14.0621 2.68988 14.0621 3V4.09425C14.0621 4.61963 14.7506 5.2215 14.9891 5.33438C15.2812 5.47238 15.7849 5.29837 16.1284 4.9545L16.9054 4.1775C17.1161 3.96638 17.49 3.96638 17.7008 4.1775L19.8218 6.29888C20.0408 6.51825 20.0408 6.87487 19.8218 7.09425L19.0448 7.87125C18.6701 8.24625 18.7358 9.15413 18.8265 9.4005C18.9555 9.74925 19.4783 9.93713 19.9054 9.93713H21C21.3101 9.93713 21.5625 10.1895 21.5625 10.4996V13.5Z" fill="black" stroke="black" stroke-width="0.3"/>
<path id="Vector_2" d="M12 7.3125C9.41512 7.3125 7.3125 9.41512 7.3125 12C7.3125 14.5849 9.41512 16.6875 12 16.6875C14.5849 16.6875 16.6875 14.5849 16.6875 12C16.6875 9.41512 14.5849 7.3125 12 7.3125ZM12 16.3125C9.62212 16.3125 7.6875 14.3779 7.6875 12C7.6875 9.62212 9.62212 7.6875 12 7.6875C14.3779 7.6875 16.3125 9.62212 16.3125 12C16.3125 14.3779 14.3779 16.3125 12 16.3125Z" fill="black" stroke="black" stroke-width="0.3"/>
<path id="Vector_3" d="M12 10.3125C11.0696 10.3125 10.3125 11.0696 10.3125 12C10.3125 12.9304 11.0696 13.6875 12 13.6875C12.9304 13.6875 13.6875 12.9304 13.6875 12C13.6875 11.0696 12.9304 10.3125 12 10.3125ZM12 13.3125C11.2763 13.3125 10.6875 12.7237 10.6875 12C10.6875 11.2763 11.2763 10.6875 12 10.6875C12.7237 10.6875 13.3125 11.2763 13.3125 12C13.3125 12.7237 12.7237 13.3125 12 13.3125Z" fill="black" stroke="black" stroke-width="0.3"/>
</g>
</g>
</g>
</svg>
