<svg width="123" height="29" viewBox="0 0 123 29" fill="none" xmlns="http://www.w3.org/2000/svg">
<path d="M40.8251 21.1001L40.3682 21.1054C40.1414 21.1075 39.9409 20.9556 39.8791 20.7336C39.7293 20.1929 39.4502 19.1851 39.2623 18.5051C39.2005 18.2816 39.2079 18.0522 39.2733 17.8414C35.3919 16.7672 33.3604 12.2997 32.8302 10.9619C30.458 10.4099 27.8861 9.98694 25.1571 10.2551C17.0785 11.0483 15.6544 21.5693 8.54666 18.5327C8.42478 18.4805 8.06347 18.2265 7.83216 18.0589C7.70806 17.9695 7.5428 17.9658 7.41502 18.0499C7.23286 18.1692 7.18804 18.4217 7.32093 18.5959C7.66101 19.0421 8.54155 19.8235 10.7375 20.4007C14.7348 21.4525 18.8903 16.1335 20.2415 16.4322C21.6546 16.7442 21.9975 19.2849 22.3588 20.9668C22.5108 21.6766 23.1301 22.1824 23.846 22.1824H25.6916C25.9906 22.1824 26.2322 21.9344 26.2278 21.6304C26.2234 21.3332 25.9847 21.0942 25.6916 21.0942H25.2671C24.9815 21.0942 24.8258 20.8737 24.784 20.5572C24.784 20.5572 24.6619 18.2145 25.3574 17.7072C26.2681 17.043 29.2345 18.689 32.0591 18.3442C32.3191 18.3122 32.5651 18.4716 32.6474 18.7233L33.3876 20.9817C33.6227 21.699 34.2844 22.1824 35.029 22.1824H36.7255C37.0281 22.1824 37.2705 21.9291 37.2616 21.623C37.2536 21.3288 37.0156 21.0949 36.7255 21.0949H36.2144C35.9081 21.0949 35.6415 20.8797 35.5776 20.5757C35.4205 19.8302 35.2148 18.3517 36.1821 18.3517C37.1493 18.3517 37.4872 20.1043 37.8874 21.2334C38.0893 21.8033 38.6218 22.1832 39.2189 22.1832H40.8324C41.1269 22.1832 41.3655 21.9411 41.3655 21.6424C41.3655 21.3415 41.1232 21.0979 40.8265 21.1017L40.8251 21.1001Z" fill="#202020"/>
<path d="M51.3915 18.1276C50.0541 16.2461 44.9448 12.5509 42.5836 12.4525C42.4361 12.4465 42.3032 12.3594 42.2268 12.2306C41.9888 11.8297 41.427 11.0514 40.7557 11.254C40.0624 11.4641 40.2548 11.9773 40.4524 12.2863C40.5207 12.3929 40.4435 12.5336 40.3188 12.5284C39.0122 12.4771 37.5779 12.1545 36.0312 11.7642C36.3522 12.4257 37.9627 15.5384 40.4722 16.786C43.9996 15.1705 49.51 18.0694 50.7953 18.7972C50.9626 18.8918 51.169 18.8701 51.3145 18.7442C51.4928 18.5894 51.5289 18.3204 51.3915 18.1276ZM43.6765 14.9336C43.3129 14.9336 43.0185 14.635 43.0185 14.2663C43.0185 13.8976 43.3129 13.5988 43.6765 13.5988C44.04 13.5988 44.3345 13.8976 44.3345 14.2663C44.3345 14.635 44.04 14.9336 43.6765 14.9336Z" fill="#202020"/>
<path d="M59.4898 18.7107V12.0011H57.3477V10.1993H58.6423C59.2549 10.1993 59.5839 9.86779 59.5839 9.25113V6.4519H61.4677V10.1978H63.8692V11.9995H61.4919V19.5874C61.4919 20.1088 61.7035 20.2987 62.2219 20.2987H64.224V22.1006H63.0474C60.6459 22.1006 59.4921 20.8202 59.4921 18.7101L59.4906 18.7115L59.4898 18.7107Z" fill="#202020"/>
<path d="M71.7099 10.1978V11.9996H67.8255V22.0997H65.8008V12.4747C65.8008 11.0045 66.602 10.1992 67.9908 10.1992L67.9894 10.1978H71.7099Z" fill="#202020"/>
<path d="M72.2048 18.7808C72.2048 16.6937 73.6407 15.3902 76.3954 15.2003L79.4095 14.9872C79.975 14.9403 80.257 14.7035 80.257 13.9206C80.257 12.2372 79.0092 11.5967 77.4779 11.5967C75.7351 11.5967 74.6989 12.4264 74.5108 13.9206H72.5331C72.8863 11.2183 74.6754 9.8418 77.5249 9.8418C80.3745 9.8418 82.328 11.3122 82.328 14.6558V20.2996H83.2695V22.1014H82.3979C81.2213 22.1014 80.5376 21.3662 80.5376 20.0142V19.849C79.8317 21.5092 78.3247 22.4574 76.2985 22.4574C73.7081 22.4574 72.2012 20.8925 72.2012 18.7822L72.2041 18.7808H72.2048ZM80.3283 16.4583L76.6546 16.6952C74.9361 16.8136 74.2773 17.5019 74.2773 18.687C74.2773 20.0857 75.1719 20.7256 76.5857 20.7256C78.7279 20.7256 80.3297 19.2552 80.3297 16.8613H80.3283V16.4583Z" fill="#202020"/>
<path d="M84.377 16.1499C84.377 12.3325 86.6853 9.84253 90.0988 9.84253C92.9954 9.84253 95.0664 11.6442 95.444 14.6565H93.4192C93.1598 12.8309 91.8188 11.6457 90.076 11.6457C87.9337 11.6457 86.4738 13.4245 86.4738 16.1514C86.4738 18.8783 87.9565 20.657 90.1003 20.657C91.8424 20.657 93.3031 19.4482 93.5609 17.5748H95.563C95.2339 20.6102 93.0196 22.4588 90.1003 22.4588C86.6868 22.4588 84.3785 19.9688 84.3785 16.1514L84.377 16.1499Z" fill="#202020"/>
<path d="M96.8105 16.1737C96.8105 12.3802 99.0006 9.84253 102.486 9.84253C105.972 9.84253 108.278 12.5932 107.783 16.7421H98.883C99.0006 19.2075 100.32 20.7025 102.532 20.7025C104.393 20.7025 105.334 19.612 105.618 18.7339H107.642C107.1 20.8209 105.382 22.4574 102.532 22.4574C99.024 22.4574 96.8105 19.9919 96.8105 16.1745V16.1737ZM105.757 15.1064C105.828 13.1861 104.65 11.5727 102.391 11.5727C100.483 11.5727 99.165 12.9247 98.9301 15.1064H105.758H105.757Z" fill="#202020"/>
<path d="M111.903 10.1978H115.623V11.9996H111.739V22.0997H109.715V12.4747C109.715 11.0045 110.515 10.1992 111.905 10.1992L111.903 10.1978H111.903Z" fill="#202020"/>
</svg>
