<svg width="45" height="12" viewBox="0 0 45 12" fill="none" xmlns="http://www.w3.org/2000/svg">
<path d="M34.1645 10.9178L33.6998 10.9232C33.469 10.9253 33.265 10.7735 33.2022 10.5517C33.0498 10.0115 32.7658 9.0046 32.5746 8.32518C32.5118 8.10195 32.5192 7.87272 32.5858 7.66215C28.6369 6.58892 26.5702 2.1254 26.0307 0.788827C23.6173 0.23735 21.0007 -0.185254 18.2242 0.0826211C10.0052 0.875185 8.55646 11.3867 1.32516 8.35277C1.20116 8.30066 0.83357 8.04691 0.598242 7.87939C0.471978 7.7901 0.303848 7.78636 0.173851 7.87046C-0.0114777 7.9896 -0.057077 8.24188 0.0781199 8.41594C0.424112 8.86173 1.31996 9.64243 3.55404 10.2191C7.62088 11.2699 11.8485 5.95575 13.2233 6.25415C14.6609 6.56587 15.0098 9.10428 15.3774 10.7847C15.532 11.4938 16.162 11.9992 16.8904 11.9992H18.7681C19.0722 11.9992 19.3181 11.7514 19.3135 11.4477C19.3091 11.1508 19.0662 10.912 18.7681 10.912H18.3362C18.0456 10.912 17.8872 10.6917 17.8446 10.3754C17.8446 10.3754 17.7205 8.03491 18.4281 7.52808C19.3546 6.86439 22.3725 8.50896 25.2462 8.16446C25.5107 8.13247 25.761 8.29173 25.8447 8.54321L26.5978 10.7996C26.837 11.5162 27.5102 11.9992 28.2677 11.9992H29.9937C30.3016 11.9992 30.5482 11.7461 30.5392 11.4403C30.531 11.1464 30.2889 10.9126 29.9937 10.9126H29.4737C29.1621 10.9126 28.8909 10.6977 28.8259 10.3939C28.666 9.6491 28.4568 8.17192 29.4409 8.17192C30.4249 8.17192 30.7686 9.92297 31.1758 11.0511C31.3813 11.6204 31.923 12 32.5304 12H34.172C34.4716 12 34.7144 11.7581 34.7144 11.4597C34.7144 11.1591 34.4679 10.9157 34.166 10.9194L34.1645 10.9178Z" fill="#202020"/>
<path d="M44.9144 7.94823C43.5537 6.06844 38.3556 2.37656 35.9534 2.27834C35.8032 2.27234 35.668 2.18531 35.5903 2.05657C35.3482 1.65609 34.7766 0.878457 34.0937 1.0809C33.3884 1.2908 33.5841 1.80349 33.7851 2.11228C33.8546 2.21877 33.7761 2.35937 33.6491 2.35417C32.3198 2.30286 30.8607 1.98061 29.2871 1.59066C29.6136 2.25155 31.2521 5.36143 33.8053 6.60792C37.394 4.99387 43.0001 7.89012 44.3077 8.61725C44.478 8.71174 44.688 8.69015 44.836 8.56434C45.0174 8.40961 45.0541 8.14094 44.9144 7.94823ZM37.0652 4.75718C36.6953 4.75718 36.3957 4.45879 36.3957 4.09043C36.3957 3.72206 36.6953 3.42354 37.0652 3.42354C37.4351 3.42354 37.7347 3.72206 37.7347 4.09043C37.7347 4.45879 37.4351 4.75718 37.0652 4.75718Z" fill="#202020"/>
</svg>
