<svg width="123" height="29" viewBox="0 0 123 29" fill="none" xmlns="http://www.w3.org/2000/svg">
<path d="M40.8251 20.7302L40.3682 20.7354C40.1414 20.7375 39.9409 20.5882 39.8791 20.3702C39.7293 19.8389 39.4502 18.8488 39.2623 18.1807C39.2005 17.9612 39.2079 17.7357 39.2733 17.5287C35.3919 16.4733 33.3604 12.0841 32.8302 10.7698C30.458 10.2275 27.8861 9.81191 25.1571 10.0753C17.0785 10.8547 15.6544 21.1912 8.54666 18.2078C8.42478 18.1566 8.06347 17.907 7.83216 17.7423C7.70806 17.6545 7.5428 17.6508 7.41502 17.7335C7.23286 17.8507 7.18804 18.0988 7.32093 18.2699C7.66101 18.7083 8.54155 19.476 10.7375 20.0431C14.7348 21.0764 18.8903 15.8507 20.2415 16.1441C21.6546 16.4506 21.9975 18.9468 22.3588 20.5993C22.5108 21.2966 23.1301 21.7935 23.846 21.7935H25.6916C25.9906 21.7935 26.2322 21.5499 26.2278 21.2512C26.2234 20.9593 25.9847 20.7244 25.6916 20.7244H25.2671C24.9815 20.7244 24.8258 20.5078 24.784 20.1968C24.784 20.1968 24.6619 17.8952 25.3574 17.3968C26.2681 16.7442 29.2345 18.3614 32.0591 18.0226C32.3191 17.9912 32.5651 18.1478 32.6474 18.3951L33.3876 20.6139C33.6227 21.3186 34.2844 21.7935 35.029 21.7935H36.7255C37.0281 21.7935 37.2705 21.5447 37.2616 21.2439C37.2536 20.9549 37.0156 20.7251 36.7255 20.7251H36.2144C35.9081 20.7251 35.6415 20.5137 35.5776 20.215C35.4205 19.4825 35.2148 18.03 36.1821 18.03C37.1493 18.03 37.4872 19.7519 37.8874 20.8612C38.0893 21.4211 38.6218 21.7943 39.2189 21.7943H40.8324C41.1269 21.7943 41.3655 21.5565 41.3655 21.263C41.3655 20.9674 41.1232 20.7281 40.8265 20.7317L40.8251 20.7302Z" fill="#FCFCFC"/>
<path d="M51.3915 17.8097C50.0541 15.9612 44.9448 12.3308 42.5836 12.2342C42.4361 12.2283 42.3032 12.1427 42.2268 12.0161C41.9888 11.6223 41.427 10.8576 40.7557 11.0567C40.0624 11.2631 40.2548 11.7672 40.4524 12.0709C40.5207 12.1756 40.4435 12.3139 40.3188 12.3087C39.0122 12.2583 37.5779 11.9414 36.0312 11.5579C36.3522 12.2078 37.9627 15.2659 40.4722 16.4917C43.9996 14.9045 49.51 17.7525 50.7953 18.4676C50.9626 18.5605 51.169 18.5392 51.3145 18.4155C51.4928 18.2634 51.5289 17.9992 51.3915 17.8097ZM43.6765 14.6718C43.3129 14.6718 43.0185 14.3783 43.0185 14.0161C43.0185 13.6539 43.3129 13.3603 43.6765 13.3603C44.04 13.3603 44.3345 13.6539 44.3345 14.0161C44.3345 14.3783 44.04 14.6718 43.6765 14.6718Z" fill="#FCFCFC"/>
<path d="M59.4898 18.3827V11.7907H57.3477V10.0205H58.6423C59.2549 10.0205 59.5839 9.6948 59.5839 9.08895V6.33881H61.4677V10.019H63.8692V11.7892H61.4919V19.244C61.4919 19.7562 61.7035 19.9429 62.2219 19.9429H64.224V21.7131H63.0474C60.6459 21.7131 59.4921 20.4551 59.4921 18.382L59.4906 18.3835L59.4898 18.3827Z" fill="#FCFCFC"/>
<path d="M71.7099 10.019V11.7892H67.8255V21.7123H65.8008V12.2561C65.8008 10.8116 66.602 10.0204 67.9908 10.0204L67.9894 10.019H71.7099Z" fill="#FCFCFC"/>
<path d="M72.2048 18.4515C72.2048 16.4011 73.6407 15.1204 76.3954 14.9338L79.4095 14.7245C79.975 14.6784 80.257 14.4458 80.257 13.6766C80.257 12.0227 79.0092 11.3934 77.4779 11.3934C75.7351 11.3934 74.6989 12.2086 74.5108 13.6766H72.5331C72.8863 11.0216 74.6754 9.66928 77.5249 9.66928C80.3745 9.66928 82.328 11.1139 82.328 14.3988V19.9437H83.2695V21.7139H82.3979C81.2213 21.7139 80.5376 20.9916 80.5376 19.6634V19.501C79.8317 21.1321 78.3247 22.0637 76.2985 22.0637C73.7081 22.0637 72.2012 20.5262 72.2012 18.453L72.2041 18.4515H72.2048ZM80.3283 16.1698L76.6546 16.4025C74.9361 16.5189 74.2773 17.1951 74.2773 18.3594C74.2773 19.7336 75.1719 20.3623 76.5857 20.3623C78.7279 20.3623 80.3297 18.9177 80.3297 16.5657H80.3283V16.1698Z" fill="#FCFCFC"/>
<path d="M84.377 15.8668C84.377 12.1163 86.6853 9.66995 90.0988 9.66995C92.9954 9.66995 95.0664 11.4401 95.444 14.3995H93.4192C93.1598 12.6059 91.8188 11.4415 90.076 11.4415C87.9337 11.4415 86.4738 13.1891 86.4738 15.8682C86.4738 18.5473 87.9565 20.2948 90.1003 20.2948C91.8424 20.2948 93.3031 19.1072 93.5609 17.2667H95.563C95.2339 20.2488 93.0196 22.065 90.1003 22.065C86.6868 22.065 84.3785 19.6187 84.3785 15.8682L84.377 15.8668Z" fill="#FCFCFC"/>
<path d="M96.8115 15.8901C96.8115 12.1631 99.0015 9.66995 102.487 9.66995C105.973 9.66995 108.279 12.3724 107.784 16.4485H98.884C99.0015 18.8708 100.321 20.3395 102.533 20.3395C104.394 20.3395 105.335 19.2681 105.619 18.4054H107.643C107.101 20.4558 105.383 22.0636 102.533 22.0636C99.025 22.0636 96.8115 19.6414 96.8115 15.8909V15.8901ZM105.758 14.8416C105.829 12.9549 104.651 11.3698 102.392 11.3698C100.484 11.3698 99.166 12.6981 98.931 14.8416H105.759H105.758Z" fill="#FCFCFC"/>
<path d="M111.904 10.019H115.624V11.7892H111.74V21.7123H109.716V12.2561C109.716 10.8116 110.516 10.0204 111.906 10.0204L111.904 10.019H111.904Z" fill="#FCFCFC"/>
</svg>
