<svg width="56" height="56" viewBox="0 0 56 56" fill="none" xmlns="http://www.w3.org/2000/svg">
<path d="M42 4.8125H14C13.7585 4.8125 13.5625 5.0085 13.5625 5.25V50.75C13.5625 50.9915 13.7585 51.1875 14 51.1875H42C42.2415 51.1875 42.4375 50.9915 42.4375 50.75V5.25C42.4375 5.0085 42.2415 4.8125 42 4.8125ZM41.5625 50.3125H14.4375V5.6875H41.5625V50.3125Z" fill="black"/>
<path d="M17.5 19.6875H38.5C38.7415 19.6875 38.9375 19.4915 38.9375 19.25V8.75C38.9375 8.5085 38.7415 8.3125 38.5 8.3125H17.5C17.2585 8.3125 17.0625 8.5085 17.0625 8.75V19.25C17.0625 19.4915 17.2585 19.6875 17.5 19.6875ZM17.9375 9.1875H38.0625V18.8125H17.9375V9.1875Z" fill="black"/>
<path d="M17.5 31.9375H21C21.2415 31.9375 21.4375 31.7415 21.4375 31.5V28C21.4375 27.7585 21.2415 27.5625 21 27.5625H17.5C17.2585 27.5625 17.0625 27.7585 17.0625 28V31.5C17.0625 31.7415 17.2585 31.9375 17.5 31.9375ZM17.9375 28.4375H20.5625V31.0625H17.9375V28.4375Z" fill="black"/>
<path d="M29.75 27.5625H26.25C26.0085 27.5625 25.8125 27.7585 25.8125 28V31.5C25.8125 31.7415 26.0085 31.9375 26.25 31.9375H29.75C29.9915 31.9375 30.1875 31.7415 30.1875 31.5V28C30.1875 27.7585 29.9915 27.5625 29.75 27.5625ZM29.3125 31.0625H26.6875V28.4375H29.3125V31.0625Z" fill="black"/>
<path d="M38.5 27.5625H35C34.7585 27.5625 34.5625 27.7585 34.5625 28V31.5C34.5625 31.7415 34.7585 31.9375 35 31.9375H38.5C38.7415 31.9375 38.9375 31.7415 38.9375 31.5V28C38.9375 27.7585 38.7415 27.5625 38.5 27.5625ZM38.0625 31.0625H35.4375V28.4375H38.0625V31.0625Z" fill="black"/>
<path d="M17.5 38.9375H21C21.2415 38.9375 21.4375 38.7415 21.4375 38.5V35C21.4375 34.7585 21.2415 34.5625 21 34.5625H17.5C17.2585 34.5625 17.0625 34.7585 17.0625 35V38.5C17.0625 38.7415 17.2585 38.9375 17.5 38.9375ZM17.9375 35.4375H20.5625V38.0625H17.9375V35.4375Z" fill="black"/>
<path d="M29.75 34.5625H26.25C26.0085 34.5625 25.8125 34.7585 25.8125 35V38.5C25.8125 38.7415 26.0085 38.9375 26.25 38.9375H29.75C29.9915 38.9375 30.1875 38.7415 30.1875 38.5V35C30.1875 34.7585 29.9915 34.5625 29.75 34.5625ZM29.3125 38.0625H26.6875V35.4375H29.3125V38.0625Z" fill="black"/>
<path d="M38.5 34.5625H35C34.7585 34.5625 34.5625 34.7585 34.5625 35V38.5C34.5625 38.7415 34.7585 38.9375 35 38.9375H38.5C38.7415 38.9375 38.9375 38.7415 38.9375 38.5V35C38.9375 34.7585 38.7415 34.5625 38.5 34.5625ZM38.0625 38.0625H35.4375V35.4375H38.0625V38.0625Z" fill="black"/>
<path d="M17.5 45.9375H21C21.2415 45.9375 21.4375 45.7415 21.4375 45.5V42C21.4375 41.7585 21.2415 41.5625 21 41.5625H17.5C17.2585 41.5625 17.0625 41.7585 17.0625 42V45.5C17.0625 45.7415 17.2585 45.9375 17.5 45.9375ZM17.9375 42.4375H20.5625V45.0625H17.9375V42.4375Z" fill="black"/>
<path d="M29.75 41.5625H26.25C26.0085 41.5625 25.8125 41.7585 25.8125 42V45.5C25.8125 45.7415 26.0085 45.9375 26.25 45.9375H29.75C29.9915 45.9375 30.1875 45.7415 30.1875 45.5V42C30.1875 41.7585 29.9915 41.5625 29.75 41.5625ZM29.3125 45.0625H26.6875V42.4375H29.3125V45.0625Z" fill="black"/>
<path d="M38.5 41.5625H35C34.7585 41.5625 34.5625 41.7585 34.5625 42V45.5C34.5625 45.7415 34.7585 45.9375 35 45.9375H38.5C38.7415 45.9375 38.9375 45.7415 38.9375 45.5V42C38.9375 41.7585 38.7415 41.5625 38.5 41.5625ZM38.0625 45.0625H35.4375V42.4375H38.0625V45.0625Z" fill="black"/>
<path d="M35 11.8125C34.7585 11.8125 34.5625 12.0085 34.5625 12.25V15.75C34.5625 15.9915 34.7585 16.1875 35 16.1875C35.2415 16.1875 35.4375 15.9915 35.4375 15.75V12.25C35.4375 12.0085 35.2415 11.8125 35 11.8125Z" fill="black"/>
</svg>
