<svg width="56" height="56" viewBox="0 0 56 56" fill="none" xmlns="http://www.w3.org/2000/svg">
<path d="M50.75 15.3125H42.4375V10.5C42.4375 10.2585 42.2415 10.0625 42 10.0625H28C27.7585 10.0625 27.5625 10.2585 27.5625 10.5V15.3125H17.9375V14C17.9375 13.7585 17.7415 13.5625 17.5 13.5625H10.5C10.3836 13.5625 10.2725 13.6089 10.1902 13.6902C10.108 13.7716 10.0625 13.8845 10.0625 14C10.0625 14 10.0625 14.7954 10.0625 15.3125H5.25C5.0085 15.3125 4.8125 15.5085 4.8125 15.75V45.5C4.8125 45.7415 5.0085 45.9375 5.25 45.9375H50.75C50.9915 45.9375 51.1875 45.7415 51.1875 45.5V15.75C51.1875 15.5085 50.9915 15.3125 50.75 15.3125ZM50.3125 45.0625H5.6875V16.1875H10.5C10.9375 16.1875 10.9375 15.7929 10.9375 15.477V14.4375H17.0625V15.75C17.0625 15.9915 17.2585 16.1875 17.5 16.1875H28C28.2415 16.1875 28.4375 15.9915 28.4375 15.75V10.9375H41.5625V15.75C41.5625 15.9915 41.7585 16.1875 42 16.1875H50.3125V45.0625Z" fill="black"/>
<path d="M14 18.8125C13.7585 18.8125 13.5625 19.0085 13.5625 19.25V40.25C13.5625 40.4915 13.7585 40.6875 14 40.6875C14.2415 40.6875 14.4375 40.4915 14.4375 40.25V19.25C14.4375 19.0085 14.2415 18.8125 14 18.8125Z" fill="black"/>
<path d="M18.375 21C18.8582 21 19.25 20.6082 19.25 20.125C19.25 19.6418 18.8582 19.25 18.375 19.25C17.8918 19.25 17.5 19.6418 17.5 20.125C17.5 20.6082 17.8918 21 18.375 21Z" fill="black"/>
<path d="M22.3125 29.75C22.3125 36.7456 28.0044 42.4375 35 42.4375C41.9956 42.4375 47.6875 36.7456 47.6875 29.75C47.6875 22.7544 41.9956 17.0625 35 17.0625C28.0044 17.0625 22.3125 22.7544 22.3125 29.75ZM46.8125 29.75C46.8125 36.2635 41.5135 41.5625 35 41.5625C28.4865 41.5625 23.1875 36.2635 23.1875 29.75C23.1875 23.2365 28.4865 17.9375 35 17.9375C41.5135 17.9375 46.8125 23.2365 46.8125 29.75Z" fill="black"/>
<path d="M25.8125 29.75C25.8125 34.8162 29.9338 38.9375 35 38.9375C40.0662 38.9375 44.1875 34.8162 44.1875 29.75C44.1875 24.6838 40.0662 20.5625 35 20.5625C29.9338 20.5625 25.8125 24.6838 25.8125 29.75ZM43.3125 29.75C43.3125 34.3333 39.5833 38.0625 35 38.0625C30.4167 38.0625 26.6875 34.3333 26.6875 29.75C26.6875 25.1667 30.4167 21.4375 35 21.4375C39.5833 21.4375 43.3125 25.1667 43.3125 29.75Z" fill="black"/>
<path d="M34.5625 24.5C34.5625 24.7415 34.7585 24.9375 35 24.9375C37.653 24.9375 39.8125 27.0961 39.8125 29.75C39.8125 29.9915 40.0085 30.1875 40.25 30.1875C40.4915 30.1875 40.6875 29.9915 40.6875 29.75C40.6875 26.614 38.136 24.0625 35 24.0625C34.7585 24.0625 34.5625 24.2585 34.5625 24.5Z" fill="black"/>
<path d="M35 32.8125C33.3112 32.8125 31.9375 31.4388 31.9375 29.75C31.9375 29.5085 31.7415 29.3125 31.5 29.3125C31.2585 29.3125 31.0625 29.5085 31.0625 29.75C31.0625 31.9209 32.8291 33.6875 35 33.6875C35.2415 33.6875 35.4375 33.4915 35.4375 33.25C35.4375 33.0085 35.2415 32.8125 35 32.8125Z" fill="black"/>
<path d="M31.5 14.4375H38.5C38.7415 14.4375 38.9375 14.2415 38.9375 14C38.9375 13.7585 38.7415 13.5625 38.5 13.5625H31.5C31.2585 13.5625 31.0625 13.7585 31.0625 14C31.0625 14.2415 31.2585 14.4375 31.5 14.4375Z" fill="black"/>
</svg>
