<svg width="56" height="56" viewBox="0 0 56 56" fill="none" xmlns="http://www.w3.org/2000/svg">
<path d="M40.25 20.5625C39.5509 20.5625 38.8456 20.6465 38.1448 20.8127C36.2198 15.4122 31.1395 11.8125 25.375 11.8125C18.2516 11.8125 12.3778 17.3084 11.865 24.3819C8.72725 25.3199 6.5625 28.2013 6.5625 31.5C6.5625 35.6011 9.89888 38.9375 14 38.9375H40.25C45.3162 38.9375 49.4375 34.8162 49.4375 29.75C49.4375 24.6838 45.3162 20.5625 40.25 20.5625ZM40.25 38.0625H14C10.381 38.0625 7.4375 35.119 7.4375 31.5C7.4375 28.4953 9.4745 25.8825 12.39 25.1449C12.5764 25.0976 12.7102 24.934 12.7199 24.7424C13.0541 17.983 18.6121 12.6875 25.375 12.6875C30.8971 12.6875 35.7472 16.2181 37.4447 21.4734C37.5174 21.6965 37.7545 21.826 37.9794 21.7595C38.7345 21.546 39.4984 21.4375 40.25 21.4375C44.8332 21.4375 48.5625 25.1667 48.5625 29.75C48.5625 34.3333 44.8332 38.0625 40.25 38.0625Z" fill="black"/>
<path d="M24.8102 24.1905C24.8023 24.1826 24.7927 24.18 24.7848 24.173C24.7498 24.1423 24.7122 24.1143 24.6693 24.096C24.5617 24.0513 24.4409 24.0513 24.3333 24.096C24.2895 24.1143 24.2528 24.1423 24.2178 24.173C24.2099 24.18 24.1994 24.1826 24.1924 24.1905L22.4424 25.9405C22.2718 26.1111 22.2718 26.3885 22.4424 26.5591C22.613 26.7297 22.8904 26.7297 23.061 26.5591L24.0638 25.5563V31.5002C24.0638 31.7417 24.2598 31.9377 24.5013 31.9377C24.7428 31.9377 24.9388 31.7417 24.9388 31.5002V25.5563L25.9415 26.5591C26.0264 26.6448 26.1384 26.6877 26.2504 26.6877C26.3624 26.6877 26.4744 26.6448 26.5602 26.56C26.7308 26.3893 26.7308 26.112 26.5602 25.9413L24.8102 24.1905Z" fill="black"/>
<path d="M32.9406 29.4402L31.9378 30.4439V24.5C31.9378 24.2585 31.7418 24.0625 31.5003 24.0625C31.2588 24.0625 31.0628 24.2585 31.0628 24.5V30.4439L30.0601 29.4411C29.8894 29.2705 29.6121 29.2705 29.4414 29.4411C29.2708 29.6117 29.2708 29.8891 29.4414 30.0598L31.1906 31.8089C31.2317 31.85 31.2807 31.8824 31.3332 31.9043C31.3866 31.9253 31.4434 31.9375 31.5003 31.9375C31.5572 31.9375 31.6141 31.9253 31.6674 31.9043C31.7208 31.8824 31.7689 31.85 31.8101 31.8089L33.5592 30.0598C33.7298 29.8891 33.7298 29.6117 33.5592 29.4411C33.3886 29.2705 33.1121 29.2696 32.9406 29.4402Z" fill="black"/>
</svg>
