<svg width="56" height="57" viewBox="0 0 56 57" fill="none" xmlns="http://www.w3.org/2000/svg">
<path d="M15.9999 32.4375H23.4181C23.566 32.4375 23.7034 32.3631 23.7839 32.2389C23.8644 32.1155 23.8775 31.9598 23.8189 31.8241C23.5651 31.2449 23.4365 30.6315 23.4365 29.9998C23.4365 27.4841 25.4831 25.4366 27.9988 25.4366C30.5144 25.4366 32.5619 27.4833 32.5619 29.9998C32.5619 30.6315 32.4333 31.2449 32.1786 31.8232C32.12 31.9589 32.1323 32.1146 32.2128 32.2389C32.2941 32.3631 32.4315 32.4375 32.5794 32.4375H39.9985C40.24 32.4375 40.436 32.2415 40.436 32V28.0013C40.436 27.7598 40.24 27.5638 39.9985 27.5638H37.1101C36.8966 26.7657 36.5799 26.001 36.1634 25.2826L38.2065 23.2386C38.3772 23.068 38.3772 22.7906 38.2065 22.62L35.3785 19.792C35.214 19.6275 34.9235 19.6275 34.7599 19.792L32.7168 21.836C31.9984 21.4195 31.2336 21.1019 30.4365 20.8884V18C30.4365 17.7585 30.2405 17.5625 29.999 17.5625H25.9985C25.757 17.5625 25.561 17.7585 25.561 18V20.8875C24.7639 21.101 23.9991 21.4177 23.2808 21.8351L21.2376 19.792C21.067 19.6214 20.7896 19.6214 20.619 19.792L17.7901 22.62C17.7079 22.7023 17.6624 22.8134 17.6624 22.9298C17.6624 23.0461 17.7088 23.1573 17.7901 23.2395L19.8341 25.2826C19.4168 26.001 19.1 26.7666 18.8865 27.5638H15.999C15.7575 27.5638 15.5615 27.7598 15.5615 28.0013V32C15.5624 32.2415 15.7575 32.4375 15.9999 32.4375ZM16.4374 28.4388H19.2295C19.4334 28.4388 19.611 28.297 19.6565 28.0984C19.8691 27.1604 20.2401 26.2688 20.7564 25.4489C20.8658 25.2756 20.8404 25.0507 20.696 24.9064L18.7194 22.9298L20.9296 20.7204L22.9063 22.697C23.0515 22.8422 23.2764 22.8668 23.4488 22.7574C24.2695 22.2411 25.1603 21.871 26.0974 21.6575C26.2969 21.612 26.4378 21.4353 26.4378 21.2314V18.4375H29.5633V21.2305C29.5633 21.4344 29.7041 21.612 29.9036 21.6566C30.8408 21.8701 31.7324 22.2403 32.5523 22.7565C32.7238 22.865 32.9495 22.8405 33.0948 22.6961L35.0714 20.7195L37.2808 22.9289L35.3041 24.9055C35.1598 25.0499 35.1344 25.2747 35.2438 25.448C35.76 26.2679 36.1301 27.1595 36.3436 28.0975C36.3891 28.297 36.5659 28.4379 36.7698 28.4379H39.5628V31.5616H33.2076C33.3608 31.0568 33.4378 30.5326 33.4378 29.9998C33.4378 27.0011 30.9983 24.5616 27.9996 24.5616C25.001 24.5616 22.5624 27.0011 22.5624 29.9998C22.5624 30.5335 22.6394 31.0568 22.7916 31.5616H16.4374V28.4388Z" fill="black"/>
<path d="M49 10.5625H7C6.7585 10.5625 6.5625 10.7585 6.5625 11V39C6.5625 39.2415 6.7585 39.4375 7 39.4375H27.5625V45.5625H21C20.7585 45.5625 20.5625 45.7585 20.5625 46C20.5625 46.2415 20.7585 46.4375 21 46.4375H35C35.2415 46.4375 35.4375 46.2415 35.4375 46C35.4375 45.7585 35.2415 45.5625 35 45.5625H28.4375V39.4375H49C49.2415 39.4375 49.4375 39.2415 49.4375 39V11C49.4375 10.7585 49.2415 10.5625 49 10.5625ZM48.5625 38.5625H7.4375V11.4375H48.5625V38.5625Z" fill="black"/>
</svg>
