<svg width="56" height="56" viewBox="0 0 56 56" fill="none" xmlns="http://www.w3.org/2000/svg">
<path d="M28 14V42M21 35.4242L23.0507 36.9623C25.7843 39.0126 30.2163 39.0126 32.9498 36.9623C35.6834 34.9121 35.6834 31.5879 32.9498 29.5377C31.5829 28.5125 29.7913 27.9999 27.9997 28C26.3082 28.0001 24.6171 27.4876 23.3266 26.4624C20.7457 24.4121 20.7457 21.088 23.3266 19.0378C25.9074 16.9875 30.0919 16.9875 32.6728 19.0378L33.6409 19.8068M49 28C49 39.598 39.598 49 28 49C16.402 49 7 39.598 7 28C7 16.402 16.402 7 28 7C39.598 7 49 16.402 49 28Z" stroke="#202020" stroke-linecap="round" stroke-linejoin="round"/>
</svg>
