<svg width="56" height="56" viewBox="0 0 56 56" fill="none" xmlns="http://www.w3.org/2000/svg">
<path d="M51.0864 27.72C50.9832 27.5966 40.6232 15.3125 27.9996 15.3125C15.3759 15.3125 5.01594 27.5966 4.91356 27.72C4.77881 27.8828 4.77881 28.1172 4.91356 28.28C5.01594 28.4034 15.3759 40.6875 27.9996 40.6875C40.6232 40.6875 50.9832 28.4034 51.0864 28.28C51.2203 28.1172 51.2203 27.8828 51.0864 27.72ZM27.9996 39.8125C16.8416 39.8125 7.44231 29.8139 5.82969 28C7.44144 26.1853 16.8337 16.1875 27.9996 16.1875C39.1576 16.1875 48.5568 26.1853 50.1694 28C48.5568 29.8139 39.1576 39.8125 27.9996 39.8125Z" fill="black"/>
<path d="M28 18.8125C22.9338 18.8125 18.8125 22.9338 18.8125 28C18.8125 33.0662 22.9338 37.1875 28 37.1875C33.0662 37.1875 37.1875 33.0662 37.1875 28C37.1875 22.9338 33.0662 18.8125 28 18.8125ZM28 36.3125C23.4167 36.3125 19.6875 32.5833 19.6875 28C19.6875 23.4167 23.4167 19.6875 28 19.6875C32.5833 19.6875 36.3125 23.4167 36.3125 28C36.3125 32.5833 32.5833 36.3125 28 36.3125Z" fill="black"/>
<path d="M28 24.0625C25.8291 24.0625 24.0625 25.8291 24.0625 28C24.0625 30.1709 25.8291 31.9375 28 31.9375C30.1709 31.9375 31.9375 30.1709 31.9375 28C31.9375 25.8291 30.1709 24.0625 28 24.0625ZM28 31.0625C26.3112 31.0625 24.9375 29.6887 24.9375 28C24.9375 26.3112 26.3112 24.9375 28 24.9375C29.6887 24.9375 31.0625 26.3112 31.0625 28C31.0625 29.6887 29.6887 31.0625 28 31.0625Z" fill="black"/>
</svg>
