<svg width="56" height="56" viewBox="0 0 56 56" fill="none" xmlns="http://www.w3.org/2000/svg">
<path d="M49 8.3125H28.4375V5.25C28.4375 5.0085 28.2415 4.8125 28 4.8125C27.7585 4.8125 27.5625 5.0085 27.5625 5.25V8.3125H7C6.7585 8.3125 6.5625 8.5085 6.5625 8.75V40.25C6.5625 40.4915 6.7585 40.6875 7 40.6875H23.8936L20.5852 50.6117C20.5091 50.841 20.6325 51.0886 20.8617 51.1656C20.9081 51.1805 20.9545 51.1875 21 51.1875C21.1829 51.1875 21.3535 51.0711 21.4148 50.8883L23.065 45.9375H32.935L34.5853 50.8883C34.6465 51.0711 34.8171 51.1875 35 51.1875C35.0464 51.1875 35.0919 51.1805 35.1383 51.1656C35.3675 51.0886 35.4909 50.841 35.4147 50.6117L32.1073 40.6875H49C49.2415 40.6875 49.4375 40.4915 49.4375 40.25V8.75C49.4375 8.5085 49.2415 8.3125 49 8.3125ZM32.6427 45.0625H23.3564L24.815 40.6875H31.1841L32.6427 45.0625ZM48.5625 39.8125H7.4375V9.1875H48.5625V39.8125Z" fill="black"/>
<path d="M15.75 31.9375H19.25C19.4915 31.9375 19.6875 31.7415 19.6875 31.5V22.75C19.6875 22.5085 19.4915 22.3125 19.25 22.3125H15.75C15.5085 22.3125 15.3125 22.5085 15.3125 22.75V31.5C15.3125 31.7415 15.5085 31.9375 15.75 31.9375ZM16.1875 23.1875H18.8125V31.0625H16.1875V23.1875Z" fill="black"/>
<path d="M22.75 31.9375H26.25C26.4915 31.9375 26.6875 31.7415 26.6875 31.5V26.25C26.6875 26.0085 26.4915 25.8125 26.25 25.8125H22.75C22.5085 25.8125 22.3125 26.0085 22.3125 26.25V31.5C22.3125 31.7415 22.5085 31.9375 22.75 31.9375ZM23.1875 26.6875H25.8125V31.0625H23.1875V26.6875Z" fill="black"/>
<path d="M29.75 31.9375H33.25C33.4915 31.9375 33.6875 31.7415 33.6875 31.5V22.75C33.6875 22.5085 33.4915 22.3125 33.25 22.3125H29.75C29.5085 22.3125 29.3125 22.5085 29.3125 22.75V31.5C29.3125 31.7415 29.5085 31.9375 29.75 31.9375ZM30.1875 23.1875H32.8125V31.0625H30.1875V23.1875Z" fill="black"/>
<path d="M36.75 31.9375H40.25C40.4915 31.9375 40.6875 31.7415 40.6875 31.5V14C40.6875 13.7585 40.4915 13.5625 40.25 13.5625H36.75C36.5085 13.5625 36.3125 13.7585 36.3125 14V31.5C36.3125 31.7415 36.5085 31.9375 36.75 31.9375ZM37.1875 14.4375H39.8125V31.0625H37.1875V14.4375Z" fill="black"/>
<path d="M40.25 34.5625H15.75C15.5085 34.5625 15.3125 34.7585 15.3125 35C15.3125 35.2415 15.5085 35.4375 15.75 35.4375H40.25C40.4915 35.4375 40.6875 35.2415 40.6875 35C40.6875 34.7585 40.4915 34.5625 40.25 34.5625Z" fill="black"/>
</svg>
