<svg width="56" height="57" viewBox="0 0 56 57" fill="none" xmlns="http://www.w3.org/2000/svg">
<path d="M49 24.5625H45.5026C45.0537 22.5596 44.2654 20.6626 43.155 18.9126L45.633 16.4337C45.8036 16.2631 45.8036 15.9858 45.633 15.8151L40.684 10.8661C40.5134 10.6955 40.236 10.6955 40.0654 10.8661L37.5874 13.3441C35.8374 12.2337 33.9404 11.4454 31.9375 10.9965V7.5C31.9375 7.2585 31.7415 7.0625 31.5 7.0625H24.5C24.2585 7.0625 24.0625 7.2585 24.0625 7.5V10.9974C22.0605 11.4462 20.1635 12.2346 18.4126 13.345L15.9346 10.867C15.764 10.6964 15.4866 10.6964 15.316 10.867L10.3661 15.816C10.2839 15.8982 10.2384 16.0094 10.2384 16.1257C10.2384 16.2421 10.2848 16.3532 10.3661 16.4355L12.8441 18.9135C11.7337 20.6635 10.9454 22.5614 10.4965 24.5634H7C6.7585 24.5634 6.5625 24.7594 6.5625 25.0009V32.0009C6.5625 32.2424 6.7585 32.4384 7 32.4384H10.4974C10.9462 34.4412 11.7346 36.3382 12.845 38.0882L10.367 40.5662C10.2847 40.6485 10.2392 40.7596 10.2392 40.876C10.2392 40.9924 10.2856 41.1035 10.367 41.1858L15.3169 46.1348C15.4875 46.3054 15.7649 46.3054 15.9355 46.1348L18.4135 43.6567C20.1635 44.7671 22.0614 45.5555 24.0634 46.0044V49.5C24.0634 49.7415 24.2594 49.9375 24.5009 49.9375H31.5009C31.7424 49.9375 31.9384 49.7415 31.9384 49.5V46.0026C33.9412 45.5537 35.8382 44.7654 37.5882 43.655L40.0662 46.133C40.2369 46.3036 40.5143 46.3036 40.6849 46.133L45.6339 41.184C45.8045 41.0134 45.8045 40.736 45.6339 40.5654L43.1559 38.0874C44.2671 36.3365 45.0546 34.4395 45.5035 32.4375H49C49.2415 32.4375 49.4375 32.2415 49.4375 32V25C49.4375 24.7585 49.2415 24.5625 49 24.5625ZM48.5625 31.5625H45.1491C44.9417 31.5625 44.7624 31.7086 44.7204 31.9125C44.2864 34.0484 43.449 36.0644 42.231 37.9045C42.1164 38.0778 42.14 38.3087 42.2861 38.4557L44.7055 40.8751L40.3751 45.2055L37.9557 42.7861C37.8087 42.6382 37.5786 42.6164 37.4045 42.731C35.5653 43.949 33.5501 44.7864 31.4125 45.2204C31.2086 45.2624 31.0625 45.4417 31.0625 45.6491V49.0625H24.9375V45.6491C24.9375 45.4417 24.7914 45.2624 24.5875 45.2204C22.4516 44.7864 20.4356 43.949 18.5955 42.731C18.4231 42.6164 18.1921 42.6391 18.0451 42.7861L15.6257 45.2055L11.2945 40.8751L13.7139 38.4557C13.8609 38.3087 13.8845 38.0778 13.769 37.9045C12.551 36.0653 11.7136 34.0501 11.2796 31.9125C11.2385 31.7086 11.0591 31.5625 10.8509 31.5625H7.4375V25.4375H10.8509C11.0591 25.4375 11.2385 25.2914 11.2796 25.0875C11.7136 22.9508 12.551 20.9348 13.769 19.0955C13.8836 18.9223 13.86 18.6921 13.7139 18.5451L11.2945 16.1257L15.6257 11.7954L18.0451 14.2147C18.1921 14.3617 18.4231 14.3845 18.5955 14.2699C20.4356 13.0519 22.4508 12.2145 24.5875 11.7805C24.7914 11.7394 24.9375 11.56 24.9375 11.3518V7.9375H31.0625V11.3509C31.0625 11.5591 31.2086 11.7385 31.4125 11.7796C33.5493 12.2136 35.5653 13.051 37.4045 14.269C37.5786 14.3828 37.8087 14.3609 37.9557 14.2139L40.3751 11.7945L44.7055 16.1249L42.2861 18.5442C42.1391 18.6912 42.1164 18.9214 42.231 19.0946C43.449 20.9339 44.2864 22.9499 44.7204 25.0866C44.7624 25.2905 44.9417 25.4366 45.1491 25.4366H48.5625V31.5625Z" fill="black"/>
<path d="M28 19.3125C22.9338 19.3125 18.8125 23.4338 18.8125 28.5C18.8125 33.5662 22.9338 37.6875 28 37.6875C33.0662 37.6875 37.1875 33.5662 37.1875 28.5C37.1875 23.4338 33.0662 19.3125 28 19.3125ZM28 36.8125C23.4167 36.8125 19.6875 33.0833 19.6875 28.5C19.6875 23.9167 23.4167 20.1875 28 20.1875C32.5833 20.1875 36.3125 23.9167 36.3125 28.5C36.3125 33.0833 32.5833 36.8125 28 36.8125Z" fill="black"/>
</svg>
